<svg width="24" height="24" viewBox="0 0 24 24" fill="none" xmlns="http://www.w3.org/2000/svg">
<path d="M12 0C9.62663 0 7.30655 0.703788 5.33316 2.02236C3.35977 3.34094 1.8217 5.21509 0.913451 7.4078C0.00519943 9.60051 -0.232441 12.0133 0.230582 14.3411C0.693605 16.6689 1.83649 18.8071 3.51472 20.4853C5.19295 22.1635 7.33115 23.3064 9.65892 23.7694C11.9867 24.2324 14.3995 23.9948 16.5922 23.0866C18.7849 22.1783 20.6591 20.6402 21.9776 18.6668C23.2962 16.6935 24 14.3734 24 12C23.9966 8.81846 22.7312 5.76821 20.4815 3.51852C18.2318 1.26883 15.1815 0.00344108 12 0ZM12 22C10.0222 22 8.08879 21.4135 6.4443 20.3147C4.79981 19.2159 3.51809 17.6541 2.76121 15.8268C2.00433 13.9996 1.8063 11.9889 2.19215 10.0491C2.578 8.10929 3.53041 6.32746 4.92894 4.92893C6.32746 3.53041 8.10929 2.578 10.0491 2.19215C11.9889 1.8063 13.9996 2.00433 15.8268 2.7612C17.6541 3.51808 19.2159 4.79981 20.3147 6.4443C21.4135 8.08879 22 10.0222 22 12C21.9971 14.6513 20.9426 17.1931 19.0679 19.0679C17.1931 20.9426 14.6513 21.9971 12 22Z" fill="white"/>
<path d="M10.6414 6.23236C10.4377 6.06235 10.1748 5.98022 9.91055 6.00404C9.64631 6.02786 9.40236 6.15567 9.23236 6.35936C9.06235 6.56304 8.98022 6.82592 9.00404 7.09016C9.02786 7.3544 9.15567 7.59835 9.35936 7.76836L14.4374 12.0004L9.35936 16.2324C9.15567 16.4024 9.02786 16.6463 9.00404 16.9106C8.98022 17.1748 9.06235 17.4377 9.23236 17.6414C9.40236 17.845 9.64631 17.9729 9.91055 17.9967C10.1748 18.0205 10.4377 17.9384 10.6414 17.7684L16.6414 12.7684C16.7539 12.6745 16.8444 12.5571 16.9066 12.4244C16.9687 12.2916 17.0009 12.1469 17.0009 12.0004C17.0009 11.8538 16.9687 11.7091 16.9066 11.5764C16.8444 11.4436 16.7539 11.3262 16.6414 11.2324L10.6414 6.23236Z" fill="white"/>
</svg>
