<svg width="24" height="24" viewBox="0 0 24 24" fill="none" xmlns="http://www.w3.org/2000/svg">
<path d="M12 0C9.62663 0 7.30655 0.703788 5.33316 2.02236C3.35977 3.34094 1.8217 5.21509 0.913451 7.4078C0.00519943 9.60051 -0.232441 12.0133 0.230582 14.3411C0.693605 16.6689 1.83649 18.8071 3.51472 20.4853C5.19295 22.1635 7.33115 23.3064 9.65892 23.7694C11.9867 24.2324 14.3995 23.9948 16.5922 23.0866C18.7849 22.1783 20.6591 20.6402 21.9776 18.6668C23.2962 16.6935 24 14.3734 24 12C23.9966 8.81846 22.7312 5.76821 20.4815 3.51852C18.2318 1.26883 15.1815 0.00344108 12 0ZM12 22C10.0222 22 8.08879 21.4135 6.4443 20.3147C4.79981 19.2159 3.51809 17.6541 2.76121 15.8268C2.00433 13.9996 1.8063 11.9889 2.19215 10.0491C2.578 8.10929 3.53041 6.32746 4.92894 4.92893C6.32746 3.53041 8.10929 2.578 10.0491 2.19215C11.9889 1.8063 13.9996 2.00433 15.8268 2.7612C17.6541 3.51808 19.2159 4.79981 20.3147 6.4443C21.4135 8.08879 22 10.0222 22 12C21.9971 14.6513 20.9426 17.1931 19.0679 19.0679C17.1931 20.9426 14.6513 21.9971 12 22Z" fill="white"/>
<path d="M14.7675 6.3596C14.5978 6.15598 14.3541 6.02811 14.09 6.00411C13.826 5.98011 13.5633 6.06193 13.3595 6.2316L7.35955 11.2316C7.24701 11.3254 7.15647 11.4429 7.09434 11.5756C7.03221 11.7083 7 11.8531 7 11.9996C7 12.1461 7.03221 12.2909 7.09434 12.4236C7.15647 12.5563 7.24701 12.6737 7.35955 12.7676L13.3595 17.7676C13.4599 17.8554 13.5768 17.9222 13.7034 17.9642C13.83 18.0061 13.9636 18.0223 14.0966 18.0119C14.2295 18.0014 14.359 17.9644 14.4774 17.9032C14.5959 17.8419 14.7008 17.7576 14.7862 17.6551C14.8716 17.5527 14.9356 17.4342 14.9745 17.3067C15.0134 17.1792 15.0264 17.0451 15.0127 16.9125C14.9991 16.7798 14.959 16.6513 14.8949 16.5343C14.8308 16.4174 14.744 16.3145 14.6396 16.2316L9.56155 11.9996L14.6396 7.7676C14.8432 7.59782 14.971 7.35412 14.995 7.0901C15.019 6.82607 14.9372 6.56331 14.7675 6.3596Z" fill="white"/>
</svg>
