<svg width="512" height="384" viewBox="0 0 512 384" fill="none" xmlns="http://www.w3.org/2000/svg">
<path d="M448 0H64C28.656 0 0 28.656 0 64V320C0 355.344 28.656 384 64 384H448C483.344 384 512 355.344 512 320V64C512 28.656 483.344 0 448 0ZM342.656 170.781L478.125 54.687C479.063 57.687 480 60.687 480 64V320C480 322.219 479.156 324.188 478.719 326.281L342.656 170.781ZM448 32C450.125 32 452 32.813 454 33.219L256 202.938L58 33.219C60 32.813 61.875 32 64 32H448ZM33.266 326.25C32.828 324.156 32 322.219 32 320V64C32 60.687 32.953 57.687 33.891 54.687L169.313 170.75L33.266 326.25ZM64 352C60.766 352 57.828 351.062 54.875 350.156L193.625 191.593L245.594 236.124C248.578 238.719 252.297 240 256 240C259.703 240 263.422 238.719 266.406 236.125L318.375 191.594L457.125 350.157C454.188 351.062 451.25 352 448 352H64Z" fill="#01588B"/>
</svg>
