<svg width="384" height="92" viewBox="0 0 384 92" fill="none" xmlns="http://www.w3.org/2000/svg">
<path d="M71.8118 13.2093H143.624C143.624 53.1444 111.209 86 71.8118 86C32.4429 86 0.0280405 53.1991 0 13.2913L71.8118 13.2093Z" fill="#01588B"/>
<path d="M0.644933 13.0726C0.028041 13.1546 11.1882 13.018 15.9831 3.47835C15.9831 3.47835 19.5723 -2.09781 23.1615 3.47835C23.8064 4.9544 27.8442 11.9246 35.8638 13.0726V19.0861H0.644933V13.0726Z" fill="#01588B"/>
<path d="M35.8909 13.0726C35.274 13.1546 46.6024 13.018 51.4534 3.47835C51.4534 3.47835 55.0987 -2.09781 58.7439 3.47835C59.4169 4.9544 63.5108 11.9519 71.6426 13.0726V19.0861H35.8909V13.0726Z" fill="#01588B"/>
<path d="M71.4476 13.0726C70.8307 13.1546 82.159 13.018 87.0101 3.47835C87.0101 3.47835 90.6553 -2.09781 94.3006 3.47835C94.9736 4.9544 99.0675 11.9519 107.199 13.0726V19.0861H71.4476V13.0726Z" fill="#01588B"/>
<path d="M107.227 13.0726C106.61 13.1546 117.938 13.018 122.789 3.47835C122.789 3.47835 126.435 -2.09781 130.08 3.47835C130.753 4.9544 134.847 11.9519 142.979 13.0726V19.0861H107.227V13.0726Z" fill="#01588B"/>
<path d="M30.199 11.1046C30.199 11.1046 35.5828 14.166 43.4341 11.1046V16.6261H30.199V11.1046Z" fill="#01588B"/>
<path d="M65.8115 11.1046C65.8115 11.1046 71.1953 14.166 79.0467 11.1046V16.6261H65.8115V11.1046Z" fill="#01588B"/>
<path d="M101.422 11.1046C101.422 11.1046 106.806 14.166 114.657 11.1046V16.6261H101.422V11.1046Z" fill="#01588B"/>
<path d="M72.4286 60.6613C77.6939 60.6613 81.9623 56.7452 81.9623 51.9144C81.9623 47.0836 77.6939 43.1675 72.4286 43.1675C67.1632 43.1675 62.8948 47.0836 62.8948 51.9144C62.8948 56.7452 67.1632 60.6613 72.4286 60.6613Z" fill="#B5DDF4"/>
<path d="M72.4292 31.9604L76.6353 39.9967L80.8414 48.0329H72.4292H64.0171L68.2232 39.9967L72.4292 31.9604Z" fill="#B5DDF4"/>
<path d="M162.174 1.5H195.649V11.12H173.874V17.88H181.349C184.512 17.88 187.242 18.2267 189.539 18.92C191.879 19.57 193.807 20.5233 195.324 21.78C196.884 22.9933 198.032 24.4883 198.769 26.265C199.505 27.9983 199.874 29.9483 199.874 32.115C199.874 36.795 198.357 40.4567 195.324 43.1C192.334 45.7 187.675 47 181.349 47H162.174V1.5ZM180.049 37.38C182.865 37.38 184.859 36.925 186.029 36.015C187.199 35.0617 187.784 33.7617 187.784 32.115C187.784 30.4683 187.199 29.19 186.029 28.28C184.859 27.3267 182.865 26.85 180.049 26.85H173.874V37.38H180.049ZM210.228 60.845C209.578 60.845 208.928 60.78 208.278 60.65V52.33C208.928 52.46 209.578 52.525 210.228 52.525C211.484 52.525 212.459 52.0917 213.153 51.225C213.846 50.4017 214.583 48.9717 215.363 46.935L200.803 12.55H211.853L220.433 35.495L228.558 12.55H238.503L225.308 47C224.354 49.4267 223.444 51.5067 222.578 53.24C221.711 55.0167 220.715 56.4683 219.588 57.595C218.505 58.7217 217.204 59.545 215.688 60.065C214.214 60.585 212.394 60.845 210.228 60.845ZM242.377 12.55H251.607V17.23C252.041 16.5367 252.582 15.865 253.232 15.215C253.926 14.5217 254.727 13.915 255.637 13.395C256.547 12.875 257.566 12.4633 258.692 12.16C259.819 11.8567 261.032 11.705 262.332 11.705C267.186 11.705 270.869 13.135 273.382 15.995C275.896 18.855 277.152 23.1233 277.152 28.8V30.1C277.152 33.0467 276.806 35.625 276.112 37.835C275.419 40.045 274.422 41.8867 273.122 43.36C271.822 44.8333 270.262 45.96 268.442 46.74C266.622 47.4767 264.586 47.845 262.332 47.845C260.382 47.845 258.519 47.4117 256.742 46.545C255.009 45.635 253.557 44.335 252.387 42.645V60H242.377V12.55ZM259.927 39.59C261.921 39.59 263.567 38.7883 264.867 37.185C266.211 35.5817 266.882 33.22 266.882 30.1V28.8C266.882 25.81 266.232 23.6 264.932 22.17C263.676 20.6967 262.007 19.96 259.927 19.96C257.804 19.96 256.006 20.6317 254.532 21.975C253.102 23.275 252.387 25.225 252.387 27.825V31.075C252.387 33.805 253.102 35.9067 254.532 37.38C256.006 38.8533 257.804 39.59 259.927 39.59ZM280.743 23.99H302.193V33.61H280.743V23.99ZM323.635 47.845C320.515 47.845 317.893 47.455 315.77 46.675C313.647 45.8517 311.913 44.7683 310.57 43.425C309.27 42.0817 308.317 40.5217 307.71 38.745C307.103 36.925 306.778 35.0183 306.735 33.025H318.045C318.132 34.7583 318.673 36.1667 319.67 37.25C320.667 38.29 321.988 38.81 323.635 38.81C325.672 38.81 327.123 38.1817 327.99 36.925C328.9 35.625 329.355 33.805 329.355 31.465C329.355 28.995 328.813 27.2833 327.73 26.33C326.647 25.3333 325.282 24.835 323.635 24.835C321.338 24.835 319.562 25.7233 318.305 27.5H307.71V1.5H338.65V11.055H318.955V17.425C320.775 16.0817 323.267 15.41 326.43 15.41C328.597 15.41 330.59 15.7567 332.41 16.45C334.23 17.1 335.79 18.0967 337.09 19.44C338.39 20.7833 339.387 22.4517 340.08 24.445C340.817 26.395 341.185 28.6917 341.185 31.335C341.185 33.8483 340.773 36.1233 339.95 38.16C339.127 40.1967 337.957 41.93 336.44 43.36C334.923 44.79 333.082 45.895 330.915 46.675C328.748 47.455 326.322 47.845 323.635 47.845ZM345.108 38.68L360.188 26.2C361.661 24.9867 362.918 23.9033 363.958 22.95C364.998 21.9533 365.843 21.0217 366.493 20.155C367.186 19.2883 367.685 18.465 367.988 17.685C368.335 16.8617 368.508 16.0167 368.508 15.15C368.508 13.6333 368.075 12.4633 367.208 11.64C366.385 10.8167 365.193 10.405 363.633 10.405C359.516 10.405 357.458 12.9617 357.458 18.075H345.758C345.758 12.5283 347.231 8.23833 350.178 5.205C353.168 2.17166 357.653 0.654996 363.633 0.654996C366.406 0.654996 368.833 1.02333 370.913 1.76C372.993 2.45333 374.726 3.45 376.113 4.75C377.5 6.00666 378.518 7.52333 379.168 9.3C379.861 11.0767 380.208 13.0267 380.208 15.15C380.208 16.71 379.926 18.205 379.363 19.635C378.843 21.065 378.085 22.4517 377.088 23.795C376.135 25.1383 374.986 26.4383 373.643 27.695C372.3 28.9517 370.848 30.1867 369.288 31.4L361.423 37.38H380.858V47H345.108V38.68Z" fill="#01588B"/>
<path d="M161.985 68.0389H173.587V70.1044H164.382V75.1789H168.36C169.533 75.1789 170.553 75.3064 171.42 75.5614C172.287 75.8164 173.001 76.1819 173.562 76.6579C174.14 77.1339 174.565 77.7034 174.837 78.3664C175.109 79.0124 175.245 79.7349 175.245 80.5339C175.245 81.3329 175.109 82.0639 174.837 82.7269C174.565 83.3729 174.14 83.9339 173.562 84.4099C173.001 84.8859 172.287 85.2514 171.42 85.5064C170.553 85.7614 169.533 85.8889 168.36 85.8889H161.985V68.0389ZM168.232 83.7979C169.932 83.7979 171.122 83.5174 171.802 82.9564C172.499 82.3784 172.848 81.5709 172.848 80.5339C172.848 79.4969 172.499 78.6979 171.802 78.1369C171.122 77.5589 169.932 77.2699 168.232 77.2699H164.382V83.7979H168.232ZM179.446 91.2439C179.191 91.2439 178.936 91.2184 178.681 91.1674V89.1274C178.936 89.1784 179.191 89.2039 179.446 89.2039C179.701 89.2039 179.922 89.1614 180.109 89.0764C180.296 88.9914 180.475 88.8299 180.645 88.5919C180.815 88.3539 180.993 88.0139 181.18 87.5719C181.384 87.1469 181.614 86.5859 181.869 85.8889L176.131 72.3739H178.63L183.016 83.3389L186.994 72.3739H189.391L184.291 85.8889C183.934 86.8409 183.594 87.6569 183.271 88.3369C182.948 89.0169 182.6 89.5694 182.226 89.9944C181.869 90.4364 181.469 90.7509 181.027 90.9379C180.585 91.1419 180.058 91.2439 179.446 91.2439ZM191.93 72.3739H194.021V74.9239C194.48 74.0229 195.118 73.3344 195.934 72.8584C196.767 72.3654 197.727 72.1189 198.815 72.1189C200.515 72.1189 201.875 72.6799 202.895 73.8019C203.915 74.9069 204.425 76.5559 204.425 78.7489V79.2589C204.425 80.4149 204.289 81.4264 204.017 82.2934C203.745 83.1434 203.363 83.8574 202.87 84.4354C202.377 84.9964 201.782 85.4214 201.085 85.7104C200.405 85.9994 199.648 86.1439 198.815 86.1439C197.659 86.1439 196.69 85.8889 195.908 85.3789C195.143 84.8689 194.565 84.2314 194.174 83.4664V90.9889H191.93V72.3739ZM198.305 84.1549C198.849 84.1549 199.359 84.0529 199.835 83.8489C200.311 83.6279 200.719 83.3134 201.059 82.9054C201.416 82.4974 201.688 81.9874 201.875 81.3754C202.079 80.7634 202.181 80.0579 202.181 79.2589V78.7489C202.181 78.0179 202.079 77.3634 201.875 76.7854C201.688 76.2074 201.416 75.7229 201.059 75.3319C200.719 74.9239 200.311 74.6179 199.835 74.4139C199.359 74.2099 198.849 74.1079 198.305 74.1079C197.693 74.1079 197.132 74.2099 196.622 74.4139C196.112 74.6009 195.679 74.8729 195.322 75.2299C194.965 75.5699 194.684 75.9779 194.48 76.4539C194.276 76.9299 194.174 77.4399 194.174 77.9839V80.0239C194.174 80.6359 194.276 81.1969 194.48 81.7069C194.684 82.2169 194.965 82.6504 195.322 83.0074C195.679 83.3644 196.112 83.6449 196.622 83.8489C197.132 84.0529 197.693 84.1549 198.305 84.1549ZM213.229 86.1439C212.362 86.1439 211.537 86.0079 210.755 85.7359C209.973 85.4639 209.285 85.0474 208.69 84.4864C208.095 83.9084 207.619 83.1859 207.262 82.3189C206.905 81.4519 206.726 80.4319 206.726 79.2589V78.7489C206.726 77.6269 206.896 76.6579 207.236 75.8419C207.576 75.0089 208.027 74.3204 208.588 73.7764C209.166 73.2154 209.829 72.7989 210.577 72.5269C211.342 72.2549 212.141 72.1189 212.974 72.1189C214.963 72.1189 216.501 72.6629 217.589 73.7509C218.677 74.8389 219.221 76.3774 219.221 78.3664V79.7944H208.97C208.97 80.5934 209.098 81.2649 209.353 81.8089C209.608 82.3529 209.939 82.7949 210.347 83.1349C210.755 83.4749 211.206 83.7214 211.699 83.8744C212.209 84.0274 212.719 84.1039 213.229 84.1039C214.249 84.1039 215.031 83.9339 215.575 83.5939C216.136 83.2539 216.535 82.7864 216.773 82.1914H218.966C218.83 82.8374 218.584 83.4069 218.227 83.8999C217.887 84.3929 217.462 84.8094 216.952 85.1494C216.459 85.4724 215.889 85.7189 215.243 85.8889C214.614 86.0589 213.943 86.1439 213.229 86.1439ZM213.101 74.1589C212.574 74.1589 212.064 74.2354 211.571 74.3884C211.078 74.5244 210.636 74.7539 210.245 75.0769C209.871 75.3829 209.565 75.7739 209.327 76.2499C209.089 76.7259 208.97 77.2954 208.97 77.9584H217.105C217.088 77.2614 216.969 76.6749 216.748 76.1989C216.544 75.7059 216.263 75.3149 215.906 75.0259C215.549 74.7199 215.124 74.4989 214.631 74.3629C214.155 74.2269 213.645 74.1589 213.101 74.1589ZM222.411 72.3739H224.655V78.0094H231.642V72.3739H233.886V85.8889H231.642V79.9984H224.655V85.8889H222.411V72.3739ZM237.975 72.3739H240.219V82.5739L247.206 72.3739H249.45V85.8889H247.206V75.6889L240.219 85.8889H237.975V72.3739ZM259.149 86.1439C258.282 86.1439 257.457 86.0079 256.675 85.7359C255.893 85.4639 255.205 85.0474 254.61 84.4864C254.015 83.9084 253.539 83.1859 253.182 82.3189C252.825 81.4519 252.646 80.4319 252.646 79.2589V78.7489C252.646 77.6269 252.816 76.6579 253.156 75.8419C253.496 75.0089 253.947 74.3204 254.508 73.7764C255.086 73.2154 255.749 72.7989 256.497 72.5269C257.262 72.2549 258.061 72.1189 258.894 72.1189C260.883 72.1189 262.421 72.6629 263.509 73.7509C264.597 74.8389 265.141 76.3774 265.141 78.3664V79.7944H254.89C254.89 80.5934 255.018 81.2649 255.273 81.8089C255.528 82.3529 255.859 82.7949 256.267 83.1349C256.675 83.4749 257.126 83.7214 257.619 83.8744C258.129 84.0274 258.639 84.1039 259.149 84.1039C260.169 84.1039 260.951 83.9339 261.495 83.5939C262.056 83.2539 262.455 82.7864 262.693 82.1914H264.886C264.75 82.8374 264.504 83.4069 264.147 83.8999C263.807 84.3929 263.382 84.8094 262.872 85.1494C262.379 85.4724 261.809 85.7189 261.163 85.8889C260.534 86.0589 259.863 86.1439 259.149 86.1439ZM259.021 74.1589C258.494 74.1589 257.984 74.2354 257.491 74.3884C256.998 74.5244 256.556 74.7539 256.165 75.0769C255.791 75.3829 255.485 75.7739 255.247 76.2499C255.009 76.7259 254.89 77.2954 254.89 77.9584H263.025C263.008 77.2614 262.889 76.6749 262.668 76.1989C262.464 75.7059 262.183 75.3149 261.826 75.0259C261.469 74.7199 261.044 74.4989 260.551 74.3629C260.075 74.2269 259.565 74.1589 259.021 74.1589ZM279.933 86.1439C279.066 86.1439 278.259 86.0079 277.511 85.7359C276.763 85.4469 276.117 85.0219 275.573 84.4609C275.029 83.8829 274.595 83.1604 274.272 82.2934C273.966 81.4264 273.813 80.4149 273.813 79.2589V78.7489C273.813 77.6609 273.983 76.7004 274.323 75.8674C274.663 75.0344 275.114 74.3459 275.675 73.8019C276.236 73.2409 276.882 72.8244 277.613 72.5524C278.361 72.2634 279.134 72.1189 279.933 72.1189C280.732 72.1189 281.446 72.2294 282.075 72.4504C282.721 72.6714 283.274 72.9774 283.733 73.3684C284.209 73.7594 284.591 74.2184 284.88 74.7454C285.186 75.2724 285.407 75.8419 285.543 76.4539H283.248C283.112 76.1309 282.951 75.8334 282.764 75.5614C282.594 75.2724 282.373 75.0259 282.101 74.8219C281.846 74.6179 281.54 74.4564 281.183 74.3374C280.826 74.2184 280.409 74.1589 279.933 74.1589C279.44 74.1589 278.964 74.2524 278.505 74.4394C278.046 74.6094 277.638 74.8814 277.281 75.2554C276.924 75.6124 276.635 76.0799 276.414 76.6579C276.21 77.2359 276.108 77.9329 276.108 78.7489V79.2589C276.108 80.1259 276.21 80.8739 276.414 81.5029C276.635 82.1149 276.924 82.6164 277.281 83.0074C277.638 83.3814 278.046 83.6619 278.505 83.8489C278.964 84.0189 279.44 84.1039 279.933 84.1039C280.766 84.1039 281.463 83.8999 282.024 83.4919C282.602 83.0839 283.01 82.5229 283.248 81.8089H285.543C285.22 83.1519 284.557 84.2144 283.554 84.9964C282.551 85.7614 281.344 86.1439 279.933 86.1439ZM288.601 72.3739H290.845V78.0349H292.63L297.679 72.3739H300.331L294.466 78.8509L300.586 85.8889H297.73L292.63 79.9729H290.845V85.8889H288.601V72.3739ZM303.269 72.3739H309.134C310.8 72.3739 312.024 72.7224 312.806 73.4194C313.588 74.0994 313.979 74.9834 313.979 76.0714C313.979 76.3604 313.928 76.6579 313.826 76.9639C313.724 77.2529 313.579 77.5249 313.392 77.7799C313.222 78.0349 313.01 78.2559 312.755 78.4429C312.517 78.6299 312.245 78.7744 311.939 78.8764C312.772 79.0804 313.401 79.4714 313.826 80.0494C314.268 80.6104 314.489 81.2734 314.489 82.0384C314.489 83.2114 314.098 84.1464 313.316 84.8434C312.534 85.5404 311.31 85.8889 309.644 85.8889H303.269V72.3739ZM309.644 83.8999C310.596 83.8999 311.267 83.7299 311.658 83.3899C312.049 83.0499 312.245 82.5654 312.245 81.9364C312.245 81.2904 312.049 80.7974 311.658 80.4574C311.267 80.1004 310.596 79.9219 309.644 79.9219H305.513V83.8999H309.644ZM309.134 78.0859C310.103 78.0859 310.774 77.9159 311.148 77.5759C311.539 77.2359 311.735 76.7684 311.735 76.1734C311.735 75.6124 311.539 75.1704 311.148 74.8474C310.774 74.5244 310.103 74.3629 309.134 74.3629H305.513V78.0859H309.134ZM321.537 86.1439C320.789 86.1439 320.126 86.0419 319.548 85.8379C318.987 85.6169 318.511 85.3194 318.12 84.9454C317.729 84.5714 317.432 84.1294 317.228 83.6194C317.024 83.1094 316.922 82.5484 316.922 81.9364C316.922 80.5934 317.313 79.6244 318.095 79.0294C318.894 78.4344 320.033 78.1369 321.512 78.1369H325.898V77.2189C325.898 76.0629 325.634 75.2639 325.107 74.8219C324.597 74.3799 323.824 74.1589 322.787 74.1589C321.818 74.1589 321.112 74.3459 320.67 74.7199C320.228 75.0769 319.982 75.4849 319.931 75.9439H317.687C317.721 75.3999 317.865 74.8984 318.12 74.4394C318.392 73.9634 318.749 73.5554 319.191 73.2154C319.65 72.8754 320.194 72.6119 320.823 72.4249C321.452 72.2209 322.149 72.1189 322.914 72.1189C324.512 72.1189 325.779 72.5014 326.714 73.2664C327.666 74.0144 328.142 75.2469 328.142 76.9639V82.4464C328.142 83.1604 328.142 83.7894 328.142 84.3334C328.159 84.8604 328.201 85.3789 328.269 85.8889H326.306C326.255 85.4979 326.221 85.1324 326.204 84.7924C326.187 84.4354 326.178 84.0359 326.178 83.5939C325.821 84.3079 325.243 84.9114 324.444 85.4044C323.645 85.8974 322.676 86.1439 321.537 86.1439ZM322.022 84.1039C322.549 84.1039 323.042 84.0359 323.501 83.8999C323.977 83.7469 324.393 83.5344 324.75 83.2624C325.107 82.9734 325.388 82.6249 325.592 82.2169C325.796 81.8089 325.898 81.3329 325.898 80.7889V79.8709H321.894C321.061 79.8709 320.407 80.0409 319.931 80.3809C319.455 80.7039 319.217 81.2224 319.217 81.9364C319.217 82.5654 319.438 83.0839 319.88 83.4919C320.339 83.8999 321.053 84.1039 322.022 84.1039ZM335.803 78.9274L330.958 72.3739H333.457L337.588 78.0349H339.143V72.3739H341.387V78.0349H342.917L347.125 72.3739H349.573L344.728 78.8509L349.828 85.8889H347.176L342.917 79.9729H341.387V85.8889H339.143V79.9729H337.588L333.304 85.8889H330.703L335.803 78.9274ZM352.5 72.3739H354.744V82.5739L361.731 72.3739H363.975V85.8889H361.731V75.6889L354.744 85.8889H352.5V72.3739ZM368.064 72.3739H370.308V78.0094H377.295V72.3739H379.539V85.8889H377.295V79.9984H370.308V85.8889H368.064V72.3739Z" fill="#01588B"/>
</svg>
