<svg width="22" height="26" viewBox="0 0 22 26" fill="none" xmlns="http://www.w3.org/2000/svg">
<path d="M11.001 25.9649C10.8694 25.9657 10.7389 25.9405 10.6171 25.8907C10.4953 25.841 10.3845 25.7676 10.291 25.6749L3.22101 18.6749C2.20028 17.6609 1.39019 16.455 0.83739 15.1267C0.284591 13.7983 0 12.3737 0 10.9349C0 9.49615 0.284591 8.07157 0.83739 6.74321C1.39019 5.41485 2.20028 4.20895 3.22101 3.19494C5.29304 1.14792 8.08835 0 11.001 0C13.9137 0 16.709 1.14792 18.781 3.19494C19.8018 4.20895 20.6118 5.41485 21.1646 6.74321C21.7174 8.07157 22.002 9.49615 22.002 10.9349C22.002 12.3737 21.7174 13.7983 21.1646 15.1267C20.6118 16.455 19.8018 17.6609 18.781 18.6749L11.711 25.6749C11.6176 25.7676 11.5068 25.841 11.3849 25.8907C11.2631 25.9405 11.1326 25.9657 11.001 25.9649ZM11.001 1.96494C8.61427 1.95909 6.32295 2.90152 4.63101 4.58494C3.79773 5.41303 3.13643 6.39772 2.68517 7.48236C2.23391 8.567 2.0016 9.73017 2.0016 10.9049C2.0016 12.0797 2.23391 13.2429 2.68517 14.3275C3.13643 15.4122 3.79773 16.3969 4.63101 17.2249L11.001 23.5549L17.371 17.2249C18.2043 16.3969 18.8656 15.4122 19.3169 14.3275C19.7681 13.2429 20.0004 12.0797 20.0004 10.9049C20.0004 9.73017 19.7681 8.567 19.3169 7.48236C18.8656 6.39772 18.2043 5.41303 17.371 4.58494C15.6791 2.90152 13.3878 1.95909 11.001 1.96494Z" fill="#01588B"/>
<path d="M11.002 15.9648C10.013 15.9648 9.04635 15.6716 8.2241 15.1222C7.40186 14.5728 6.761 13.7919 6.38256 12.8783C6.00412 11.9646 5.9051 10.9593 6.09803 9.9894C6.29096 9.01949 6.76716 8.12858 7.46642 7.42931C8.16568 6.73005 9.0566 6.25385 10.0265 6.06092C10.9964 5.86799 12.0017 5.96701 12.9154 6.34545C13.829 6.72389 14.6099 7.36475 15.1593 8.187C15.7087 9.00924 16.002 9.97594 16.002 10.9648C16.002 12.2909 15.4752 13.5627 14.5375 14.5004C13.5998 15.4381 12.328 15.9648 11.002 15.9648ZM11.002 7.96485C10.4086 7.96485 9.82859 8.14079 9.33524 8.47044C8.8419 8.80008 8.45738 9.26862 8.23032 9.8168C8.00325 10.365 7.94384 10.9682 8.0596 11.5501C8.17536 12.1321 8.46108 12.6666 8.88064 13.0862C9.30019 13.5057 9.83474 13.7914 10.4167 13.9072C10.9986 14.023 11.6018 13.9635 12.15 13.7365C12.6982 13.5094 13.1667 13.1249 13.4964 12.6316C13.826 12.1382 14.002 11.5582 14.002 10.9648C14.002 10.1692 13.6859 9.40613 13.1233 8.84353C12.5607 8.28092 11.7976 7.96485 11.002 7.96485Z" fill="#01588B"/>
</svg>
