<svg width="200" height="200" viewBox="0 0 200 200" fill="none" xmlns="http://www.w3.org/2000/svg">
<path d="M144 199.671C64.5977 199.671 0 135.074 0 55.6712C0.0138093 42.0486 4.98652 28.897 13.9892 18.6732C22.9918 8.44939 35.4086 1.85272 48.9199 0.115506C52.3582 -0.299364 55.8383 0.409922 58.84 2.13729C61.8416 3.86467 64.2035 6.5173 65.5723 9.69851L85.6641 56.5764C86.7062 59.0013 87.131 61.6466 86.9006 64.2759C86.6702 66.9051 85.7917 69.4362 84.3438 71.6428L67.709 97.0608L67.707 97.0628C75.2188 112.335 87.6066 124.668 102.912 132.113L127.955 115.419C130.168 113.939 132.716 113.035 135.367 112.792C138.018 112.548 140.688 112.972 143.134 114.025L189.972 134.098C193.153 135.466 195.806 137.828 197.534 140.83C199.262 143.831 199.971 147.312 199.556 150.75C197.819 164.262 191.222 176.679 180.998 185.682C170.774 194.685 157.623 199.657 144 199.671ZM50.8662 16.0022C41.2287 17.2532 32.3757 21.9686 25.9599 29.2682C19.544 36.5678 16.0038 45.9528 16 55.6712C16.0385 89.6071 29.5365 122.142 53.5328 146.138C77.5292 170.135 110.064 183.633 144 183.671C153.728 183.663 163.121 180.114 170.424 173.687C177.726 167.26 182.439 158.394 183.683 148.745L136.832 128.732L111.797 145.426C109.496 146.963 106.835 147.876 104.075 148.076C101.315 148.276 98.5503 147.756 96.0517 146.567C77.4439 137.55 62.3897 122.564 53.2881 103.997C52.0927 101.514 51.5596 98.763 51.7405 96.0125C51.9213 93.262 52.81 90.605 54.3203 88.2991L70.956 62.8801L50.8662 16.0022Z" fill="#01588B"/>
</svg>
