<svg width="14" height="16" viewBox="0 0 14 16" fill="none" xmlns="http://www.w3.org/2000/svg">
<path d="M8.096 0.0051899C7.027 0.0774699 6.16276 0.89638 6.02054 1.94469L6.014 2.001L3.50166 2.0015L3.35722 2.00837C2.59664 2.08106 2.00175 2.72181 2.00175 3.5015L2.001 5.766L1.94391 5.77204C0.84646 5.92103 0 6.86242 0 8.0015L0.0051899 8.1556C0.0774699 9.2245 0.89638 10.0887 1.94469 10.231L2.001 10.236L2.00175 12.5016L2.00862 12.6461C2.0813 13.4066 2.72205 14.0015 3.50175 14.0015L5.516 14.001L5.52229 14.0565C5.67128 15.1535 6.61266 16 7.7517 16L7.9058 15.9948C8.9748 15.9225 9.839 15.1036 9.9812 14.0553L9.986 14.001L12.5017 14.0015C13.3302 14.0015 14.0017 13.3299 14.0017 12.5015L14.0009 9.2486L12.2496 9.25L12.1267 9.2446C11.5015 9.1934 11 8.6521 11 8L11.0054 7.87667C11.0566 7.25154 11.5979 6.75 12.25 6.75L14.0009 6.7486L14.0017 3.50164L13.9949 3.35716C13.9222 2.59639 13.2814 2.0015 12.5017 2.0015L10.485 2.001L10.4795 1.94469C10.3305 0.84646 9.3891 0 8.25 0L8.096 0.0051899ZM8.25 1C8.9404 1 9.5 1.55964 9.5 2.25V3.0009L12.5016 3.0015L12.5916 3.00956C12.8249 3.0519 13.0017 3.25604 13.0017 3.5015L13.001 5.749L12.2496 5.75C11.076 5.75 10.1019 6.65244 10.0074 7.81602L10.0004 7.97981C10 9.174 10.9024 10.1481 12.066 10.2426L12.2298 10.2496L13.001 10.248L13.0017 12.5016C13.0017 12.7776 12.7779 13.0015 12.5017 13.0015L8.9995 13.0009L9.0018 13.7515C9.0017 14.4404 8.4421 15 7.7517 15C7.0614 15 6.50175 14.4404 6.50175 13.75L6.4995 13.0009L3.50165 13.0015C3.22561 13.0015 3.00175 12.7776 3.00175 12.5015L3.00086 9.25L2.249 9.2515C1.55964 9.2515 1 8.6919 1 8.0015C1 7.31115 1.55964 6.7515 2.25 6.7515L3.00086 6.75L3.00175 3.50164C3.00175 3.22536 3.22561 3.0015 3.50175 3.0015L7 3.00092V2.25C7 1.55964 7.5596 1 8.25 1Z" fill="#01588B"/>
</svg>
