<svg width="31" height="35" viewBox="0 0 31 35" fill="none" xmlns="http://www.w3.org/2000/svg">
<path d="M15.25 34.065C14.683 34.0698 14.1257 33.9175 13.64 33.625L7.57 30.075C5.29761 28.8042 3.40097 26.956 2.07176 24.7172C0.742556 22.4784 0.0278925 19.9285 0 17.325V7.625C0.000268913 6.97135 0.200707 6.33345 0.574353 5.79712C0.947998 5.26079 1.47693 4.85174 2.09 4.625L14.15 0.195004C14.8603 -0.0650014 15.6397 -0.0650014 16.35 0.195004L28.41 4.625C29.0231 4.85174 29.552 5.26079 29.9256 5.79712C30.2993 6.33345 30.4997 6.97135 30.5 7.625V17.325C30.4721 19.9285 29.7574 22.4784 28.4282 24.7172C27.099 26.956 25.2024 28.8042 22.93 30.075L16.86 33.625C16.3743 33.9175 15.817 34.0698 15.25 34.065ZM15.25 2.505C15.1707 2.49056 15.0893 2.49056 15.01 2.505L2.95 6.955C2.81416 7.00531 2.69759 7.09709 2.61682 7.21735C2.53605 7.3376 2.49518 7.48022 2.5 7.625V17.325C2.529 19.4913 3.12965 21.6115 4.24119 23.4711C5.35273 25.3307 6.93572 26.8637 8.83 27.915L14.9 31.475C15.0073 31.5336 15.1277 31.5644 15.25 31.5644C15.3723 31.5644 15.4927 31.5336 15.6 31.475L21.67 27.915C23.5643 26.8637 25.1473 25.3307 26.2588 23.4711C27.3703 21.6115 27.971 19.4913 28 17.325V7.625C28.0006 7.48361 27.9578 7.34543 27.8773 7.22917C27.7968 7.11291 27.6826 7.02419 27.55 6.975L15.49 2.545C15.4131 2.51713 15.3318 2.50358 15.25 2.505Z" fill="#01588B"/>
<path d="M14.1499 21.975C13.8548 21.9731 13.5692 21.8708 13.3399 21.685L9.06992 18.085C8.81531 17.8715 8.65595 17.5656 8.62688 17.2346C8.59781 16.9036 8.70142 16.5746 8.91492 16.32C9.12842 16.0654 9.43432 15.906 9.76532 15.8769C10.0963 15.8479 10.4253 15.9515 10.6799 16.165L14.0299 18.985L19.7499 12.685C19.9727 12.4383 20.2843 12.2903 20.6163 12.2734C20.9482 12.2565 21.2733 12.3722 21.5199 12.595C21.7666 12.8178 21.9146 13.1294 21.9315 13.4613C21.9484 13.7933 21.8327 14.1183 21.6099 14.365L15.1299 21.565C15.0059 21.7 14.854 21.8066 14.6848 21.8774C14.5157 21.9482 14.3332 21.9815 14.1499 21.975Z" fill="#01588B"/>
</svg>
