<svg width="28" height="29" viewBox="0 0 28 29" fill="none" xmlns="http://www.w3.org/2000/svg">
<path d="M10.1015 5.67711e-05C8.18368 -0.00646962 6.30613 0.549841 4.70146 1.60006L11.1015 8.00006C11.3146 8.18192 11.4892 8.40459 11.615 8.65496C11.7407 8.90533 11.8151 9.17834 11.8338 9.4579C11.8524 9.73747 11.8149 10.0179 11.7235 10.2828C11.6321 10.5476 11.4886 10.7915 11.3015 11.0001C11.0929 11.1872 10.849 11.3307 10.5842 11.4221C10.3193 11.5135 10.0389 11.551 9.7593 11.5324C9.47974 11.5137 9.20673 11.4393 8.95636 11.3136C8.70599 11.1878 8.48331 11.0132 8.30146 10.8001L1.70146 4.40006C0.560349 6.07919 -0.0334548 8.07018 0.00145559 10.1001C0.011989 12.7755 1.07948 15.3384 2.97131 17.2302C4.86315 19.122 7.42601 20.1895 10.1015 20.2001C10.977 20.2048 11.85 20.1041 12.7015 19.9001L19.4015 26.6001C20.343 27.5416 21.6199 28.0705 22.9515 28.0705C24.283 28.0705 25.5599 27.5416 26.5015 26.6001C27.443 25.6585 27.9719 24.3816 27.9719 23.0501C27.9719 21.7185 27.443 20.4416 26.5015 19.5001L19.8015 12.8001C20.0055 11.9486 20.1062 11.0756 20.1015 10.2001C20.1281 8.8701 19.8891 7.54821 19.3984 6.31177C18.9078 5.07534 18.1754 3.94922 17.2442 2.99934C16.3129 2.04947 15.2015 1.29494 13.9751 0.779931C12.7486 0.264924 11.4317 -0.0002093 10.1015 5.67711e-05ZM18.1015 10.1001C18.1 10.8106 17.999 11.5175 17.8015 12.2001L17.5015 13.3001L18.3015 14.1001L25.0015 20.8001C25.2868 21.0702 25.5138 21.3958 25.6686 21.757C25.8234 22.1181 25.9026 22.5071 25.9015 22.9001C25.9127 23.2944 25.838 23.6865 25.6826 24.0491C25.5272 24.4118 25.2948 24.7362 25.0015 25.0001C24.7306 25.2845 24.4048 25.5109 24.0438 25.6656C23.6828 25.8203 23.2942 25.9001 22.9015 25.9001C22.5087 25.9001 22.1201 25.8203 21.7591 25.6656C21.3981 25.5109 21.0723 25.2845 20.8015 25.0001L14.1015 18.3001L13.3015 17.5001L12.2015 17.8001C11.5189 17.9976 10.812 18.0986 10.1015 18.1001C7.97653 18.0942 5.93541 17.2705 4.40146 15.8001C3.6257 15.0701 3.01138 14.1858 2.59803 13.2041C2.18468 12.2224 1.98146 11.165 2.00146 10.1001C2.00283 9.35662 2.10373 8.61672 2.30146 7.90006L6.70146 12.3001C7.07325 12.7046 7.52187 13.0312 8.02115 13.2606C8.52043 13.49 9.06039 13.6178 9.60955 13.6364C10.1587 13.655 10.7061 13.5641 11.2197 13.369C11.7334 13.1739 12.2031 12.8785 12.6015 12.5001C12.9799 12.1017 13.2753 11.632 13.4704 11.1183C13.6655 10.6047 13.7564 10.0573 13.7378 9.50815C13.7192 8.95899 13.5914 8.41903 13.362 7.91975C13.1326 7.42047 12.806 6.97185 12.4015 6.60006L8.00146 2.20006C8.6482 1.99551 9.32316 1.89427 10.0015 1.90006C12.1264 1.90596 14.1675 2.72957 15.7015 4.20006C17.2368 5.78073 18.0975 7.89645 18.1015 10.1001Z" fill="#01588B"/>
</svg>
