<svg width="32" height="32" viewBox="0 0 32 32" fill="none" xmlns="http://www.w3.org/2000/svg">
<g clip-path="url(#clip0_46_1060)">
<path d="M3 18.5625C3 20.3353 3.34919 22.0908 4.02763 23.7287C4.70606 25.3666 5.70047 26.8549 6.95406 28.1084C8.20765 29.362 9.69588 30.3564 11.3338 31.0349C12.9717 31.7133 14.7272 32.0625 16.5 32.0625C18.2728 32.0625 20.0283 31.7133 21.6662 31.0349C23.3041 30.3564 24.7924 29.362 26.0459 28.1084C27.2995 26.8548 28.2939 25.3666 28.9724 23.7287C29.6508 22.0908 30 20.3353 30 18.5625L16.5 18.5625H3Z" fill="#01588B"/>
<path d="M16.5 0C3.675 9.13846 2.99977 16.0962 3 18.6923H16.5V0Z" fill="#01588B"/>
<path d="M16.5 0C29.325 9.13846 30.0002 16.0962 30 18.6923H16.5V0Z" fill="#01588B"/>
<ellipse cx="0.94449" cy="2.04597" rx="0.94449" ry="2.04597" transform="matrix(0.996708 0.08108 -0.210018 0.977697 7.03906 14.541)" fill="white"/>
</g>
<defs>
<clipPath id="clip0_46_1060">
<rect width="32" height="32" fill="white"/>
</clipPath>
</defs>
</svg>
